<svg xmlns="http://www.w3.org/2000/svg" version="1.1" xmlns:xlink="http://www.w3.org/1999/xlink" xmlns:svgjs="http://svgjs.dev/svgjs" width="1440" height="560" preserveAspectRatio="none" viewBox="0 0 1440 560">
    <g mask="url(&quot;#SvgjsMask1094&quot;)" fill="none">
        <rect width="1440" height="560" x="0" y="0" fill="rgba(111, 127, 143, 1)"></rect>
        <path d="M0 0L85.18 0L0 61.37z" fill="rgba(255, 255, 255, .1)"></path>
        <path d="M0 61.37L85.18 0L694.03 0L0 288.93z" fill="rgba(255, 255, 255, .075)"></path>
        <path d="M0 288.93L694.03 0L939.8399999999999 0L0 388.91z" fill="rgba(255, 255, 255, .05)"></path>
        <path d="M0 388.91L939.8399999999999 0L1078.21 0L0 465.07000000000005z" fill="rgba(255, 255, 255, .025)"></path>
        <path d="M1440 560L1040.1399999999999 560L1440 284.46z" fill="rgba(0, 0, 0, .1)"></path>
        <path d="M1440 284.46L1040.1399999999999 560L531.4899999999999 560L1440 130.86999999999998z" fill="rgba(0, 0, 0, .075)"></path>
        <path d="M1440 130.87L531.49 560L263.33 560L1440 82.18z" fill="rgba(0, 0, 0, .05)"></path>
        <path d="M1440 82.18L263.3299999999999 560L117.21999999999991 560L1440 77.89z" fill="rgba(0, 0, 0, .025)"></path>
    </g>
    <defs>
        <mask id="SvgjsMask1094">
            <rect width="1440" height="560" fill="#ffffff"></rect>
        </mask>
    </defs>
</svg>