<svg xmlns="http://www.w3.org/2000/svg" version="1.1" xmlns:xlink="http://www.w3.org/1999/xlink" xmlns:svgjs="http://svgjs.dev/svgjs" width="1440" height="773" preserveAspectRatio="none" viewBox="0 0 1440 773"><g mask="url(&quot;#SvgjsMask1642&quot;)" fill="none"><path d="M1244 522L1243 29" stroke-width="6" stroke="url(&quot;#SvgjsLinearGradient1643&quot;)" stroke-linecap="round" class="Down"></path><path d="M407 30L406 -278" stroke-width="8" stroke="url(&quot;#SvgjsLinearGradient1643&quot;)" stroke-linecap="round" class="Down"></path><path d="M1089 422L1088 -133" stroke-width="10" stroke="url(&quot;#SvgjsLinearGradient1643&quot;)" stroke-linecap="round" class="Down"></path><path d="M999 667L998 107" stroke-width="10" stroke="url(&quot;#SvgjsLinearGradient1644&quot;)" stroke-linecap="round" class="Up"></path><path d="M1132 145L1131 667" stroke-width="8" stroke="url(&quot;#SvgjsLinearGradient1644&quot;)" stroke-linecap="round" class="Up"></path><path d="M217 474L216 913" stroke-width="10" stroke="url(&quot;#SvgjsLinearGradient1644&quot;)" stroke-linecap="round" class="Up"></path><path d="M1359 356L1358 -214" stroke-width="8" stroke="url(&quot;#SvgjsLinearGradient1644&quot;)" stroke-linecap="round" class="Up"></path><path d="M27 663L26 96" stroke-width="10" stroke="url(&quot;#SvgjsLinearGradient1643&quot;)" stroke-linecap="round" class="Down"></path><path d="M1019 673L1018 345" stroke-width="10" stroke="url(&quot;#SvgjsLinearGradient1644&quot;)" stroke-linecap="round" class="Up"></path><path d="M99 63L98 -444" stroke-width="8" stroke="url(&quot;#SvgjsLinearGradient1643&quot;)" stroke-linecap="round" class="Down"></path><path d="M323 229L322 718" stroke-width="8" stroke="url(&quot;#SvgjsLinearGradient1643&quot;)" stroke-linecap="round" class="Down"></path><path d="M793 184L792 398" stroke-width="6" stroke="url(&quot;#SvgjsLinearGradient1644&quot;)" stroke-linecap="round" class="Up"></path><path d="M814 19L813 -423" stroke-width="8" stroke="url(&quot;#SvgjsLinearGradient1643&quot;)" stroke-linecap="round" class="Down"></path><path d="M1234 508L1233 253" stroke-width="6" stroke="url(&quot;#SvgjsLinearGradient1643&quot;)" stroke-linecap="round" class="Down"></path><path d="M224 740L223 1032" stroke-width="10" stroke="url(&quot;#SvgjsLinearGradient1644&quot;)" stroke-linecap="round" class="Up"></path><path d="M1023 266L1022 -193" stroke-width="6" stroke="url(&quot;#SvgjsLinearGradient1643&quot;)" stroke-linecap="round" class="Down"></path><path d="M219 244L218 13" stroke-width="10" stroke="url(&quot;#SvgjsLinearGradient1643&quot;)" stroke-linecap="round" class="Down"></path><path d="M456 138L455 -413" stroke-width="6" stroke="url(&quot;#SvgjsLinearGradient1644&quot;)" stroke-linecap="round" class="Up"></path><path d="M587 356L586 691" stroke-width="6" stroke="url(&quot;#SvgjsLinearGradient1643&quot;)" stroke-linecap="round" class="Down"></path><path d="M607 224L606 -330" stroke-width="8" stroke="url(&quot;#SvgjsLinearGradient1643&quot;)" stroke-linecap="round" class="Down"></path><path d="M1144 323L1143 573" stroke-width="8" stroke="url(&quot;#SvgjsLinearGradient1643&quot;)" stroke-linecap="round" class="Down"></path><path d="M659 546L658 38" stroke-width="8" stroke="url(&quot;#SvgjsLinearGradient1643&quot;)" stroke-linecap="round" class="Down"></path><path d="M168 680L167 1171" stroke-width="6" stroke="url(&quot;#SvgjsLinearGradient1644&quot;)" stroke-linecap="round" class="Up"></path><path d="M1282 419L1281 984" stroke-width="6" stroke="url(&quot;#SvgjsLinearGradient1644&quot;)" stroke-linecap="round" class="Up"></path><path d="M642 249L641 7" stroke-width="6" stroke="url(&quot;#SvgjsLinearGradient1643&quot;)" stroke-linecap="round" class="Down"></path><path d="M921 487L920 -86" stroke-width="8" stroke="url(&quot;#SvgjsLinearGradient1643&quot;)" stroke-linecap="round" class="Down"></path><path d="M999 349L998 625" stroke-width="8" stroke="url(&quot;#SvgjsLinearGradient1644&quot;)" stroke-linecap="round" class="Up"></path><path d="M744 519L743 92" stroke-width="10" stroke="url(&quot;#SvgjsLinearGradient1644&quot;)" stroke-linecap="round" class="Up"></path><path d="M1000 440L999 1017" stroke-width="10" stroke="url(&quot;#SvgjsLinearGradient1644&quot;)" stroke-linecap="round" class="Up"></path><path d="M997 472L996 -4" stroke-width="10" stroke="url(&quot;#SvgjsLinearGradient1644&quot;)" stroke-linecap="round" class="Up"></path><path d="M1219 29L1218 416" stroke-width="8" stroke="url(&quot;#SvgjsLinearGradient1644&quot;)" stroke-linecap="round" class="Up"></path><path d="M1414 646L1413 959" stroke-width="10" stroke="url(&quot;#SvgjsLinearGradient1644&quot;)" stroke-linecap="round" class="Up"></path><path d="M736 565L735 1142" stroke-width="8" stroke="url(&quot;#SvgjsLinearGradient1643&quot;)" stroke-linecap="round" class="Down"></path><path d="M532 684L531 430" stroke-width="8" stroke="url(&quot;#SvgjsLinearGradient1644&quot;)" stroke-linecap="round" class="Up"></path><path d="M991 315L990 550" stroke-width="6" stroke="url(&quot;#SvgjsLinearGradient1644&quot;)" stroke-linecap="round" class="Up"></path><path d="M1106 688L1105 468" stroke-width="10" stroke="url(&quot;#SvgjsLinearGradient1643&quot;)" stroke-linecap="round" class="Down"></path></g><defs><mask id="SvgjsMask1642"><rect width="1440" height="773" fill="#ffffff"></rect></mask><linearGradient x1="0%" y1="0%" x2="0%" y2="100%" id="SvgjsLinearGradient1643"><stop stop-color="rgba(28, 83, 142, 0)" offset="0"></stop><stop stop-color="#1c538e" offset="1"></stop></linearGradient><linearGradient x1="0%" y1="100%" x2="0%" y2="0%" id="SvgjsLinearGradient1644"><stop stop-color="rgba(28, 83, 142, 0)" offset="0"></stop><stop stop-color="#1c538e" offset="1"></stop></linearGradient></defs></svg>