<svg xmlns="http://www.w3.org/2000/svg" version="1.1" xmlns:xlink="http://www.w3.org/1999/xlink" xmlns:svgjs="http://svgjs.dev/svgjs" width="1440" height="560" preserveAspectRatio="none" viewBox="0 0 1440 560"><g mask="url(&quot;#SvgjsMask1023&quot;)" fill="none"><path d="M1512 560L0 560 L0 322.8Q91.78 342.58, 72 434.35Q117.1 407.45, 144 452.54Q148.82 385.37, 216 390.19Q250.54 304.73, 336 339.26Q371.41 254.67, 456 290.09Q532.04 246.13, 576 322.17Q675.34 349.5, 648 448.84Q624.93 305.77, 768 282.7Q872.02 266.73, 888 370.75Q943.72 354.47, 960 410.19Q981.42 359.61, 1032 381.03Q1048.11 325.13, 1104 341.24Q1131.45 296.69, 1176 324.14Q1223.65 251.79, 1296 299.45Q1323.08 254.53, 1368 281.61Q1418.21 259.83, 1440 310.04Q1495.13 293.18, 1512 348.31z" fill="rgba(53, 108, 177, 1)"></path><path d="M1464 560L0 560 L0 537.14Q22.5 487.64, 72 510.14Q73.62 439.75, 144 441.37Q195.34 372.71, 264 424.05Q358.77 398.82, 384 493.59Q441.83 479.42, 456 537.25Q466.03 427.28, 576 437.31Q645.7 387.01, 696 456.71Q764.31 453.02, 768 521.34Q778.22 459.56, 840 469.78Q911.28 421.06, 960 492.34Q1003.62 415.96, 1080 459.58Q1126 433.57, 1152 479.57Q1257.82 465.39, 1272 571.21Q1337.03 516.24, 1392 581.27Q1409.49 526.76, 1464 544.25z" fill="rgba(255, 255, 255, 1)"></path></g><defs><mask id="SvgjsMask1023"><rect width="1440" height="560" fill="#ffffff"></rect></mask></defs></svg>