<svg xmlns="http://www.w3.org/2000/svg" version="1.1" xmlns:xlink="http://www.w3.org/1999/xlink" xmlns:svgjs="http://svgjs.dev/svgjs" width="1440" height="560" preserveAspectRatio="none" viewBox="0 0 1440 560"><g mask="url(&quot;#SvgjsMask1003&quot;)" fill="none"><path d="M1097 214L1096 501" stroke-width="6" stroke="url(&quot;#SvgjsLinearGradient1004&quot;)" stroke-linecap="round" class="Down"></path><path d="M328 198L327 383" stroke-width="6" stroke="url(&quot;#SvgjsLinearGradient1004&quot;)" stroke-linecap="round" class="Down"></path><path d="M1268 167L1267 -145" stroke-width="8" stroke="url(&quot;#SvgjsLinearGradient1004&quot;)" stroke-linecap="round" class="Down"></path><path d="M780 65L779 -202" stroke-width="8" stroke="url(&quot;#SvgjsLinearGradient1004&quot;)" stroke-linecap="round" class="Down"></path><path d="M650 73L649 -325" stroke-width="8" stroke="url(&quot;#SvgjsLinearGradient1005&quot;)" stroke-linecap="round" class="Up"></path><path d="M87 105L86 313" stroke-width="6" stroke="url(&quot;#SvgjsLinearGradient1004&quot;)" stroke-linecap="round" class="Down"></path><path d="M1035 148L1034 374" stroke-width="6" stroke="url(&quot;#SvgjsLinearGradient1004&quot;)" stroke-linecap="round" class="Down"></path><path d="M332 120L331 -205" stroke-width="6" stroke="url(&quot;#SvgjsLinearGradient1004&quot;)" stroke-linecap="round" class="Down"></path><path d="M456 378L455 613" stroke-width="10" stroke="url(&quot;#SvgjsLinearGradient1005&quot;)" stroke-linecap="round" class="Up"></path><path d="M875 371L874 136" stroke-width="6" stroke="url(&quot;#SvgjsLinearGradient1004&quot;)" stroke-linecap="round" class="Down"></path><path d="M953 365L952 28" stroke-width="10" stroke="url(&quot;#SvgjsLinearGradient1004&quot;)" stroke-linecap="round" class="Down"></path><path d="M459 468L458 49" stroke-width="10" stroke="url(&quot;#SvgjsLinearGradient1004&quot;)" stroke-linecap="round" class="Down"></path><path d="M745 541L744 247" stroke-width="10" stroke="url(&quot;#SvgjsLinearGradient1004&quot;)" stroke-linecap="round" class="Down"></path><path d="M264 86L263 -250" stroke-width="6" stroke="url(&quot;#SvgjsLinearGradient1004&quot;)" stroke-linecap="round" class="Down"></path><path d="M1047 1L1046 144" stroke-width="6" stroke="url(&quot;#SvgjsLinearGradient1005&quot;)" stroke-linecap="round" class="Up"></path><path d="M50 383L49 92" stroke-width="10" stroke="url(&quot;#SvgjsLinearGradient1004&quot;)" stroke-linecap="round" class="Down"></path><path d="M693 188L692 -170" stroke-width="10" stroke="url(&quot;#SvgjsLinearGradient1004&quot;)" stroke-linecap="round" class="Down"></path><path d="M438 346L437 176" stroke-width="8" stroke="url(&quot;#SvgjsLinearGradient1005&quot;)" stroke-linecap="round" class="Up"></path><path d="M251 127L250 -49" stroke-width="6" stroke="url(&quot;#SvgjsLinearGradient1005&quot;)" stroke-linecap="round" class="Up"></path><path d="M453 389L452 50" stroke-width="8" stroke="url(&quot;#SvgjsLinearGradient1004&quot;)" stroke-linecap="round" class="Down"></path><path d="M158 326L157 657" stroke-width="10" stroke="url(&quot;#SvgjsLinearGradient1004&quot;)" stroke-linecap="round" class="Down"></path><path d="M1404 308L1403 149" stroke-width="10" stroke="url(&quot;#SvgjsLinearGradient1005&quot;)" stroke-linecap="round" class="Up"></path><path d="M1364 258L1363 563" stroke-width="6" stroke="url(&quot;#SvgjsLinearGradient1005&quot;)" stroke-linecap="round" class="Up"></path><path d="M764 111L763 522" stroke-width="8" stroke="url(&quot;#SvgjsLinearGradient1004&quot;)" stroke-linecap="round" class="Down"></path><path d="M349 237L348 458" stroke-width="10" stroke="url(&quot;#SvgjsLinearGradient1005&quot;)" stroke-linecap="round" class="Up"></path><path d="M490 380L489 205" stroke-width="10" stroke="url(&quot;#SvgjsLinearGradient1004&quot;)" stroke-linecap="round" class="Down"></path><path d="M1410 295L1409 693" stroke-width="6" stroke="url(&quot;#SvgjsLinearGradient1005&quot;)" stroke-linecap="round" class="Up"></path><path d="M1383 151L1382 -71" stroke-width="6" stroke="url(&quot;#SvgjsLinearGradient1004&quot;)" stroke-linecap="round" class="Down"></path><path d="M132 234L131 527" stroke-width="10" stroke="url(&quot;#SvgjsLinearGradient1005&quot;)" stroke-linecap="round" class="Up"></path><path d="M863 94L862 -266" stroke-width="8" stroke="url(&quot;#SvgjsLinearGradient1004&quot;)" stroke-linecap="round" class="Down"></path><path d="M218 105L217 -299" stroke-width="6" stroke="url(&quot;#SvgjsLinearGradient1005&quot;)" stroke-linecap="round" class="Up"></path><path d="M1167 429L1166 284" stroke-width="6" stroke="url(&quot;#SvgjsLinearGradient1004&quot;)" stroke-linecap="round" class="Down"></path><path d="M1213 116L1212 317" stroke-width="8" stroke="url(&quot;#SvgjsLinearGradient1004&quot;)" stroke-linecap="round" class="Down"></path><path d="M158 62L157 -102" stroke-width="6" stroke="url(&quot;#SvgjsLinearGradient1005&quot;)" stroke-linecap="round" class="Up"></path><path d="M710 167L709 -215" stroke-width="6" stroke="url(&quot;#SvgjsLinearGradient1004&quot;)" stroke-linecap="round" class="Down"></path><path d="M1361 438L1360 206" stroke-width="10" stroke="url(&quot;#SvgjsLinearGradient1004&quot;)" stroke-linecap="round" class="Down"></path></g><defs><mask id="SvgjsMask1003"><rect width="1440" height="560" fill="#ffffff"></rect></mask><linearGradient x1="0%" y1="0%" x2="0%" y2="100%" id="SvgjsLinearGradient1004"><stop stop-color="rgba(28, 83, 142, 0)" offset="0"></stop><stop stop-color="#1c538e" offset="1"></stop></linearGradient><linearGradient x1="0%" y1="100%" x2="0%" y2="0%" id="SvgjsLinearGradient1005"><stop stop-color="rgba(28, 83, 142, 0)" offset="0"></stop><stop stop-color="#1c538e" offset="1"></stop></linearGradient></defs></svg>