<svg xmlns="http://www.w3.org/2000/svg" version="1.1" xmlns:xlink="http://www.w3.org/1999/xlink" xmlns:svgjs="http://svgjs.dev/svgjs" width="1518" height="560" preserveAspectRatio="none" viewBox="0 0 1518 560"><g mask="url(&quot;#SvgjsMask1100&quot;)" fill="none"><path d="M 0,204 C 60.8,180 182.4,89 304,84 C 425.6,79 486.4,179.8 608,179 C 729.6,178.2 790.4,84.6 912,80 C 1033.6,75.4 1094.8,153.4 1216,156 C 1337.2,158.6 1457.6,105.6 1518,93L1518 560L0 560z" fill="rgba(0, 1, 31, 1)"></path><path d="M 0,312 C 101.2,339.6 303.6,442.4 506,450 C 708.4,457.6 809.6,336 1012,350 C 1214.4,364 1416.8,486 1518,520L1518 560L0 560z" fill="rgba(0, 0, 0, 1)"></path></g><defs><mask id="SvgjsMask1100"><rect width="1518" height="560" fill="#ffffff"></rect></mask></defs></svg>